/* XPM */
static char *_9f3e2b8f060417e81080e15804e066amuwQN9I0yJxvkNnZ[] = {
/* columns rows colors chars-per-pixel */
"32 32 200 2 ",
"   c None",
".  c #782E78",
"X  c #6C4D74",
"o  c #724C7A",
"O  c #784A7F",
"+  c #76477C",
"@  c #6C5075",
"#  c #75527E",
"$  c #812C7F",
"%  c #7E3080",
"&  c #7B3B80",
"*  c #7E4584",
"=  c #7E4B84",
"-  c #7C5284",
";  c #7A5A85",
":  c #7E5C8A",
">  c #7E638B",
",  c #891F86",
"<  c #931C8E",
"1  c #961F91",
"2  c #9B1E95",
"3  c #9F1A9A",
"4  c #A41D9D",
"5  c #A11799",
"6  c #862484",
"7  c #892486",
"8  c #842C84",
"9  c #8D238A",
"0  c #8C2B8A",
"q  c #882A85",
"w  c #91258E",
"e  c #90298E",
"r  c #823584",
"t  c #843C86",
"y  c #8A328B",
"u  c #853B89",
"i  c #8C3F8E",
"p  c #90338E",
"a  c #9B2496",
"s  c #952D92",
"d  c #9A2C97",
"f  c #9C2A99",
"g  c #962492",
"h  c #943493",
"j  c #983797",
"k  c #943C93",
"l  c #9E339A",
"z  c #973899",
"x  c #9B3B9B",
"c  c #A3239D",
"v  c #A22C9C",
"b  c #A1369C",
"n  c #A23A9B",
"m  c #A71DA0",
"M  c #AC1BA5",
"N  c #AE1EA8",
"B  c #B916AF",
"V  c #B51BAD",
"C  c #B81BAF",
"Z  c #B316A9",
"A  c #BD16B4",
"S  c #B71BB0",
"D  c #BC1BB3",
"F  c #9F3FA0",
"G  c #A624A1",
"H  c #AB22A4",
"J  c #A52BA2",
"K  c #AA2BA4",
"L  c #AE23A9",
"P  c #AD2CA9",
"I  c #B423AD",
"U  c #B22AAD",
"Y  c #BA21AF",
"T  c #A434A2",
"R  c #AC32A5",
"E  c #A43BA2",
"W  c #AE32AA",
"Q  c #AB3CA9",
"!  c #A93FA3",
"~  c #B233AE",
"^  c #B13BAD",
"/  c #BA38AF",
"(  c #B625B0",
")  c #BB22B4",
"_  c #B62BB1",
"`  c #BB2BB4",
"'  c #BF22B8",
"]  c #BE2CB8",
"[  c #BB32B4",
"{  c #BB3BB3",
"}  c #BF35BB",
"|  c #C21CB6",
" . c #C515BA",
".. c #CA15BE",
"X. c #C41BBA",
"o. c #CA1BBE",
"O. c #C116B6",
"+. c #C123B5",
"@. c #C323BA",
"#. c #C824BE",
"$. c #C12AB9",
"%. c #C02CB5",
"&. c #C134B9",
"*. c #C039BA",
"=. c #824A86",
"-. c #85468A",
";. c #864C8C",
":. c #87468A",
">. c #805286",
",. c #83548B",
"<. c #89518F",
"1. c #85598D",
"2. c #8D4592",
"3. c #8C4C91",
"4. c #934394",
"5. c #984196",
"6. c #934B95",
"7. c #95419A",
"8. c #964B99",
"9. c #9A4C9C",
"0. c #9A459A",
"q. c #8B5291",
"w. c #875990",
"e. c #8B5C94",
"r. c #935296",
"t. c #955499",
"y. c #9A539E",
"u. c #995A9D",
"i. c #965B9B",
"p. c #81638E",
"a. c #8E6198",
"s. c #876694",
"d. c #90659C",
"f. c #9E4EA1",
"g. c #9D55A1",
"h. c #9D5BA3",
"j. c #A444A2",
"k. c #A843A4",
"l. c #A44DA4",
"z. c #A94BA7",
"x. c #AD45AC",
"c. c #AB4AA9",
"v. c #B140AE",
"b. c #A352A5",
"n. c #AB55AC",
"m. c #AB5AAD",
"M. c #A159A6",
"N. c #B945B3",
"B. c #B64BB3",
"V. c #B94DB5",
"C. c #BB46BB",
"Z. c #AE58B1",
"A. c #AF54B1",
"S. c #B951B5",
"D. c #BA54B8",
"F. c #BC59BC",
"G. c #B253B4",
"H. c #9D64A5",
"J. c #9D6DA7",
"K. c #9F66A8",
"L. c #A963AF",
"P. c #A167AA",
"I. c #AD63B2",
"U. c #AD6BB4",
"Y. c #BB65BF",
"T. c #CA42BE",
"R. c #CD15C1",
"E. c #CD1CC3",
"W. c #D213C5",
"Q. c #D21CC5",
"!. c #D613C9",
"~. c #D41DC9",
"^. c #D81BCA",
"/. c #C726C0",
"(. c #CC23C3",
"). c #CC2BC3",
"_. c #D120C5",
"`. c #D123C5",
"'. c #D02AC6",
"]. c #D423CA",
"[. c #D32CCB",
"{. c #DA28CA",
"}. c #CD33C2",
"|. c #CC3AC1",
" X c #C632C0",
".X c #D335CD",
"XX c #BE5EC0",
"oX c #CB44C2",
"OX c #CA4DC3",
"+X c #CB4AC3",
"@X c #CA49C9",
"#X c #DD49CF",
"$X c #CA53C5",
"%X c #C755C5",
"&X c #DC4CD1",
"*X c #DA44D0",
"=X c #DA5DD6",
"-X c #CB64CB",
";X c #CA6ACC",
":X c #D967D7",
/* pixels */
"                  ^.W.!.!.W.W.W.W.R.R.W.                        ",
"              | ^.^.Q.R.W.R.R...R.R...!.Q.`.                    ",
"          I @.Q.o.Q.^.| _.V @.V X.o.^.E.Q.(.$.R                 ",
"        G M | o.Q.#.{.$.@.T d J ' ^.Q.X.E.X.S P U               ",
"      | D Z X.o.X.).).{.%.s y T &.}._ I $.( ) I ' `             ",
"    _.X. .V Z ) @.+.[ }.|.W h h }.v.j.*.h J I ) I I U           ",
"    Q.^.Q.S 4 a d v W R [ |.Q 6.OXl.l.z.5.h v P ) I V U         ",
"  #.o.E.Q._.) K y h b v b #XB.l.b.,.r.r.,.O h P I D O.) [       ",
"  @.| X.@.L P T ^ k b n T.N.&XOXS.t.,.r.,.=.= h ( O.E._._ v     ",
"'.#.| ) G J x ^ E b * j.&X6.l.S.$X>.X >.r.=.+ x L | Q.| I G     ",
"(.(./.L T k j E ^ ;.OX&X8.,.b.t.t.B.- @ = X -.j.U ].o.D S 4 g   ",
"~.].).} x.9.8.j.V.$Xu.n.n.; ; w.D.r.>.B.= =.8.x.&.' D X.D V 2   ",
"~.(.[.C.B.l.A.b.$Xn.; : e.> e.u.%Xr.r.6.+XV.&XN.T ( ) D S M 2 7 ",
"~.(.[.OXG.b.b.I.=Xh.e.: e.H.Y.I.w.F.u.,.j.6.k 5.p ] C S V M 1 , ",
"~.].}.@XXXZ.K.H.:XI.a.H.I.P.-XI.> u.1.# o ;.4.! { a V V V 4 < 9 ",
"~.]..X%X;X;XU.U.;XU.K.I.s.P.;XK.> m.e.q.y.+X{ / l c N V M m w 6 ",
"~.].).V.;XI.J.H.J.Y.H.> p.I.-XH.m.; y.c.|.t k J v H V S M 3 < 8 ",
"E.].).@XF.d.s.L.L.;X> > h.g.F.-Xg.y.z.oXt h s d a V C A Z 3 w g ",
"(.(.[..Xf.r.1.t.i.-Xe.; ; g.h.F.$XD.oX5.k v R a M O.O.B V Y a 6 ",
"[.[.[.[ E j.y.D.$X1.t.# <.q.n.M.f.oXc.k./ $ q 1 5 D  . .D c 0 . ",
"  '.).] _ [ |.OXS.t.t.o - 3.f.r.b.0.oX8.E . $ < M S ..B H a q 8 ",
"   X/.#.' '.[ :.=.b.V.=.q.q.,.r.r.9.&XOXoX[ 7 5 V V o.M c 0 8 % ",
"    )._.Q.@.) P 4.V.k.;.- = 6.;.3.g.c.+Xi #.`.O.A S @.G a 0 y r ",
"    ).(.o.o.D D f ~ k 4.4.-.:.j.4.l.l.*Xl J ) Q.A X._ K h y r   ",
"      @.X.O.D D S U ` P Q F F Q x j Q }.U I V A Q.@.H f s q r   ",
"        D D O.X.o.X.' @.).'.] W ] ).'.$.) ' S D Q.L H c e 0     ",
"          S S X.O.O.E.Q.Q.@._.].{.#.( ' $.' M H ' _.P f d 0     ",
"            ) ) | X.Q.o.O.| | ' ( ' ' U $.K c H c H +.I V       ",
"              ] `.`.(.' @.@.( I _ P J ~ [ P h f w a e d         ",
"                T ~ W W [ T T T x x z l E j j 0 0 9 d           ",
"                    F 7.7.2.2.3.2.2.i h k t u r r               ",
"                        e.,.q.: = * -.t r t &                   "
};
