/* XPM */
static char *c7afa477ffcd4103d08022ba66f448c4Uh5fqjSHc8roW2YA[] = {
/* columns rows colors chars-per-pixel */
"32 32 11 1 ",
"  c #001000",
". c #001800",
"X c #002000",
"o c #003000",
"O c #003018",
"+ c #004000",
"@ c #006000",
"# c #004020",
"$ c #006030",
"% c #008000",
"& c #008040",
/* pixels */
"  X XX X  X  X   XX XX  XX  XX  ",
" +%%%@  X+@@@%@@o +@%@+X +@%@@%o",
"X%@@++@+X+%@+o++oX@@+XXX o+++++X",
" %@o++OO+X +o@%oo ++@XX   oo@+@+",
"XXXOOX$&$#oo+o@o@ +@+  @o   ++++",
"X@+#&#O$X&#$o++@o @+Xo@o+o+ o@+X",
"X@XOXOOXXXOO&Ooo  +@++@o++oo ooo",
"XoXO#O..OX..XXO$  @o@@+@+o+o o  ",
"  #$OX.....O#X&O o@+o+o@XXX  ooo",
" XO#XX.#..OXXX&$ oo@o@+&XX##o+o@",
"XXX&XOXOX.$OXOOOX ooo+oXXOXXO#@+",
" XXOOXXXX.XXOO#$# X  #+XXXX.O$X+",
" +X$OXXX.X#.#X&Ooo o $OX.$..XO&X",
" @$XOXO.#X$.X#$#+XX X $OX..$.X&X",
" %XXOXX..$XX#OOOoXX+@X#OOX#$.X$X",
"X@+$OXX#X.O$&$#o@X XXX$XOXXXX&#o",
" +%$#OOOXOX##O@+XX   XX&OXXO#XX+",
"Xo%X+$&$&$XO#+Xoooo    X #&$XX o",
"X XXXX$OO#O$$Xo+o o oo   o+ X   ",
"XXX  XoXX$$X+Xo+o  o@@   o@+o@o ",
" +%+X  XXXXo@o+o   o%+o  o%@+@oo",
" %+X+ @@ o      X@XooX+o ooooo@o",
"X@+X @++oo  X+X+@++XX##OXOXX+o+o",
" +   o@X+XX X+@@XXXX$O#&$.OXXXoo",
"X @+ ooX+oo +o+X X #OOXX..&O#   ",
"X%XoX oooX  XXX oXo#&XOO#.X$O#X ",
"X@+X  XoX X    o+X#$OOX#O$XXOO  ",
" %XXXX oXXXX o+ooXXOOXO.X#XX&   ",
" +XX+X   XoX +@@+@$#OXXX$#OX#%@o",
"X X+XX o+oo  oo+o+o$XXOOXXO&X@oo",
" XX%+ +@%+oo   o+@X$XOO&O##X+XXX",
"o  X o+ooo@o    ooo+o&&O#&+ooooo"
};
