/* XPM */
static char *d5e67214ea7a4718fe7d53e15b1f3064dXA6mmPwSLDu7Y5a[] = {
/* columns rows colors chars-per-pixel */
"32 32 97 2 ",
"   c #3B1300",
".  c #3E1900",
"X  c #421C00",
"o  c #481F00",
"O  c #4A2200",
"+  c #4F2A00",
"@  c #522D00",
"#  c #553200",
"$  c #5A3600",
"%  c #5D3A00",
"&  c #5D3C09",
"*  c #603700",
"=  c #623D00",
"-  c #654200",
";  c #6A4400",
":  c #674900",
">  c #6B4A00",
",  c #6E4C0B",
"<  c #714D00",
"1  c #724D08",
"2  c #755201",
"3  c #795601",
"4  c #7C5A04",
"5  c #775608",
"6  c #7D5D0B",
"7  c #6C4C10",
"8  c #755213",
"9  c #7D5B13",
"0  c #73521B",
"q  c #7F600D",
"w  c #7F6013",
"e  c #825D03",
"r  c #825D08",
"t  c #846005",
"y  c #83620C",
"u  c #88640E",
"i  c #8C690F",
"p  c #856513",
"a  c #896713",
"s  c #8C6A15",
"d  c #85671A",
"f  c #86691F",
"g  c #8A6B1A",
"h  c #926D13",
"j  c #926D18",
"k  c #8E701D",
"l  c #94711B",
"z  c #866220",
"x  c #846920",
"c  c #8B6D20",
"v  c #8D6C2E",
"b  c #8E7021",
"n  c #8F742C",
"m  c #947425",
"M  c #997723",
"N  c #9B7926",
"B  c #93772A",
"V  c #9C7C2A",
"C  c #9A7B2D",
"Z  c #9D7E2D",
"A  c #9F7F2D",
"S  c #967B31",
"D  c #9A7E33",
"F  c #9D7E31",
"G  c #A37F2A",
"H  c #A17F2D",
"J  c #9F8237",
"K  c #A1822E",
"L  c #A18231",
"P  c #A68633",
"I  c #A38635",
"U  c #A18437",
"Y  c #A68635",
"T  c #A78835",
"R  c #AA8835",
"E  c #A1863B",
"W  c #A7883A",
"Q  c #AA8B3A",
"!  c #AE8F3B",
"~  c #AA8B3E",
"^  c #9F8441",
"/  c #AA8C41",
"(  c #AE8F41",
")  c #AE9248",
"_  c #B19242",
"`  c #B59642",
"'  c #B49345",
"]  c #B59649",
"[  c #BA9A48",
"{  c #B89A4E",
"}  c #B89D52",
"|  c #BCA156",
" . c #BCA15C",
".. c #BEA360",
"X. c #C5AA64",
"o. c #D0B164",
"O. c #D9BA6B",
/* pixels */
"t M h ; 6 N p Z [ s - p 4 > s s = < 6 4  .a k g D s d < 2 t X 3 ",
"l p r y % N @ 2 N ; y ; ; = - = 2 3 5 K J ; - 9 > 2 N = a ; $ : ",
"y % 2 6 > 4 y 3 u = W K [ > % = x > t ; = 6 < > e j 2 = > a # u ",
"@ 2 y y j T @ u - y = > @ a 2 a N - # % w ; W $ - = t < > 2 p ; ",
"; - d 3 = 2 $ % b ( p 3 6 s 2 3 - 3 > e ) 3 - $ N = t $ > 2 2 Z ",
"# C a M p K > Z Q 6 3 < = m > 6 = - p = | B N ! F > 3 o > $ 3 V ",
"# @ 4 3 > _ N b q p $ a | g 6 4 ; > > a k g D s d < # a k g D s ",
"$ 4 > p $ s N Y > = x > @ y 5 I > Q t $ 2 Z = ; H s 2 $ - % 4 y ",
"d 4 > ; p 2 D > = 4 m < > a 3 = a > { J % q = s S 4 @ 2 2 - $ - ",
"< y $ g < < k g s @ @ s > < > a Y G J > < j # H > ` 5 ; 5 $ c 2 ",
"% 2 % = H s 2 6 p 4 - K + R a $ < l < y a 2 3 a ; - 2 > # u u - ",
"$ ; = 2 P $ $ a a -  .p > m $ < Z % ; 4 Z > 2 3 ; s = < 3 2 @ m ",
"4 6 6 _ ; y 6 6 ! > @ B # @ l m 6 - Y = t _ 3 $ ; ' O.a l u 2 t ",
"y 2 d = @ d L ..a a > B 6 H y Z 4 - } u { 2 W $ - - > q W : u 1 ",
"2 2 n = g C > $ R - - u ; i - J # = 4 = ' Z W 2 W 5 7 r 3 d = 0 ",
"- $ 4 ; p ! g 4 < $ 3 b = 3 $ 3 > 2 ; > m / 4 = > 4 > r 3 s = > ",
"$ 4 4 3 - 4 a l t $ v = % 3 = H 5 # - ; 3 $ t l 9 m > g a r < g ",
"n b > L 3 d - = < 6 a y p $ % J = - $ % > 5 2 d l 2 / # > d 2 J ",
"t 2 ] > * g l = + V @ - - i @ < = g u r 3 a t 3 > a @ @ 3 Z N y ",
"4 s I 2 # a k g D s d < 3 y * G ; < 3 ~ 6 D > a @ 2 - l _ O.- ; ",
"8 y 3 4 k = s t ; ] V Z e 6 _ 5 - 2 m = p t - = 3 g ~ ; 3 f d < ",
"- ; C - > = 3 $ 4 # % , - 2 l > - F 4 @ V X.K > % 4 s ; g y m = ",
"# ! b > e < 2 = D = @  .2 ; a > < C l e e  .d - y & J % 3 s = + ",
"4 V % B M @ g g g # 3 ` > J 4 s = B e - 3 = 2 < 4 D m - 4 < g y ",
"@ = > > 3 d g z < t < I - D 3 = - 3 - @ ' ; < - > 4 y w - u - e ",
"% @ # %   p g + 3 = V O @ # V t P o.= - @ y 4 ; 2 N ; ^ P 3 ; y ",
"> ; 6 = . 2 > l 2 = @ P a d $ N 3 - p = 4 C y y Z < 3 P 6 [ C - ",
"@ < # g > p r l - = ] t = - r e 6 B = b w 6 6 a / m 6 # m ~ > ; ",
"p y = 3 < 2 g V $ % 6 > u 5 @ V g a b > > M 4 > u m Z j - K > 4 ",
"p $ p # < g = Z % < >  .a > @ # = a ] w y C K = > l a h E > 2 @ ",
"2 p ] > ; l y e k < ! # t 2 = 5 y - < % - 9 - p ^ g y > [ > 3 # ",
"- O p N $ > y e g # -  .$ 3 3 > D < e l - - D 3 Z $ - 6 - t $ 3 "
};
