/* XPM */
static char *_9edeea4b617499de610bb79e99acb118dBKWjBUYzw3eZNy[] = {
/* columns rows colors chars-per-pixel */
"32 32 18 1 ",
"  c None",
". c black",
"X c #260A00",
"o c #401000",
"O c #601800",
"+ c #534741",
"@ c #735241",
"# c #736357",
"$ c #802000",
"% c #A02800",
"& c #C03000",
"* c #A5765E",
"= c #CCC200",
"- c #D9CE00",
"; c #CA8F72",
": c #C3A68B",
"> c #E5A282",
", c #FFB691",
/* pixels */
"                                ",
"                                ",
"              ....              ",
"             .OOOO.             ",
"             .&$$o.             ",
"             .$OO$.             ",
"             .-XX=.             ",
"             .$%$$.             ",
"            .&o**oO.            ",
"           .&&OooO$o.           ",
"          .@$%$OO$$$@.          ",
"         .;>;@$$$O@;;@.         ",
"         .>,>>@@@@,>*;.         ",
"        .>,;>,;*>,;*@>@.        ",
"        .,>@;;;*;;**@>;.        ",
"      ..,>@.@@***@@@.;>@..      ",
"     .;;>>. .@>****. .>>;*.     ",
"     .,;*@. .;>>>;*. .@>;>.     ",
"     .;*..  .*@*@*@.  ..;*.     ",
"      ..    .%OOOOo.    ..      ",
"           .OO%OOOoo.           ",
"           .OOOOooOo.           ",
"           .%Oo..o%O.           ",
"           .%O.  .%O.           ",
"          .%Oo.  .%%o.          ",
"          .%Oo.  .O%O.          ",
"          .OOo.  .oOo.          ",
"          .OO.    .Oo.          ",
"         .%Oo.    .oOo.         ",
"        .:#:.      .:#:.        ",
"        .#+#.      .#+#.        ",
"         ...        ...         "
};
