/* XPM */
static char *cdbe2bb7f3e8470a8f93d2e9ca365050MSjQPLZCDuytycy3[] = {
/* columns rows colors chars-per-pixel */
"32 32 6 1 ",
"  c None",
". c black",
"X c #E00000",
"o c #608080",
"O c #78A0A0",
"+ c white",
/* pixels */
"                                ",
"                                ",
"                                ",
"                                ",
"         OOo                    ",
"       OOOOOo                   ",
"      OOOOOOo                   ",
"      OOOOOOOo                  ",
"     O.OOOO.Oo                  ",
"     OX.OO.Xo                   ",
"    ooOO OOoo     OOOO  OO      ",
"     oO  Ooooo  OOOOOOOOOO      ",
"      ooOoo O  OOOOoooooO       ",
"      +oo + oOOOOOoo    OO      ",
"      O   +O oOOOOO     oOOO    ",
"     oO + Oo  OOOoo    OOOOOO   ",
"      oOOOo  OOOoo   OOo oO OO  ",
"      ooooo OOOOo    +    O  +  ",
"    OOOO   OOooOo  o +    +     ",
"   OOo OOOOOo  OO  O     +      ",
"  OO      oo  OOO OOo           ",
"  Oo        ooOO  Oooo          ",
"  OO         ooOOOOOOO          ",
"   OO         oooo  O  O        ",
"    oO             OO Oo        ",
"  OOOOO++        oOO  Oo O      ",
" OO O   +                 o     ",
" O  OO              OO  O       ",
"  O   +                    O    ",
"   +                            ",
"   ++                           ",
"                                "
};
