/* XPM */
static char *fdd0eb6593fb46bdbec7da32723c9c4f7K2ybYmBfRoiIuvs[] = {
/* columns rows colors chars-per-pixel */
"32 32 10 1 ",
"  c #010101",
". c #200000",
"X c #300C00",
"o c #401000",
"O c #601800",
"+ c #802000",
"@ c #A02800",
"# c #C03000",
"$ c #E03800",
"% c #FF4000",
/* pixels */
"                                ",
" @$$##$$#$@@#@@$$#$$@@@$$$$$@@# ",
" #@#$$@#@###$$$#@@@@@#$###$@@$@ ",
" ooOOooOoOoo+ooXo+OoOoo+ooXXo$@ ",
" XXooOoXo+oO+OOo+OoXo+oO+oOOO$$ ",
" XXoXoXoO++OooXoOO+XoXoo+OoOo## ",
" $$#$#OXoo+ooXOXooOX++oXO+ooO@$ ",
" @#$#$%oOoOOoXOO+++o+oOoOoOXO#@ ",
" @#@$#%oOooOOXX+ooOoOo+Xoo+oo#@ ",
" #@##$$XooOoOooOOooOOoOXOo+Xo@# ",
" $#@$#%XXOoOooOoooOOoXOXXOOoX## ",
" $$#$#$XXooooXoOooOoXoooXOoo.#@ ",
" #@##$%+###@OooOOoOooXoOoooX.#@ ",
" @#@$#$+@#@##oXOooOOOoXXOoXXX@@ ",
" @$##$%#@@#$#XoXoOoXooOXoXX.o@# ",
" #$$@#$#+#@#$XooXXOoXXOXoXoX.@@ ",
" $#$@#%@+#+#$X..XXoXXXooXoXXX@# ",
" @$#$#$###@+#XX.X.X..XooXXo.X@# ",
" $@@#$%@$@#@#@@+@@OXXXX.oXXX.#@ ",
" $$$##$#$+@##O+@++@X...XXX.X.@$ ",
" #$#$$$##@#@#+@@+O#X.X.X..X.X@$ ",
" @@#$#%+@#@#$+@OO+#X.X.X.X...#$ ",
" @$$#$$+##+$#O++@+@XX......X.@# ",
" ##$#$%@@++#$++@+O#++++OX.X.X@$ ",
" $$#$#%++@#@#+O+OO@oOOoo+..X.#@ ",
" +@+++@OOOOO@OoOoo+XooXXO...X@# ",
" @#@#@@@#@@$#@@#$@@@$@#$#$$$$#@ ",
" @#@@###@#@$$##@$$#@#$#@$##$#@@ ",
" oOOOOoOOoOOOoOoOOoooOoOOOoOOoO ",
" oOooOooooOoOOoooOOooOooooooooO ",
" OoOOoOOOooOOOOOoooOOoOoOoOooOo ",
"                                "
};
